<?xml version="1.0" encoding="UTF-8"?>
<svg width="374px" height="377px" viewBox="0 0 374 377" version="1.1" xmlns="http://www.w3.org/2000/svg" xmlns:xlink="http://www.w3.org/1999/xlink">
    <!-- Generator: Sketch 46.2 (44496) - http://www.bohemiancoding.com/sketch -->
    <title>item-category-bg-orange</title>
    <desc>Created with Sketch.</desc>
    <defs></defs>
    <g id="Page-1" stroke="none" stroke-width="1" fill="none" fill-rule="evenodd">
        <g id="item-category-bg-orange" fill="#F8C255">
            <polygon id="Shape" points="0 0 374 1 363 11 373 21 363 33 373 44 361 56 374 67 362 78 373 89 363 99 374 110 362 122 374 131 363 143 373 154 363 166 374 178 363 189 373 200 363 212 374 223 364 234 373 243 363 255 374 266 363 278 374 290 363 301 373 311 363 321 373 332 363 343 373 355 362 365 374 377 1 377"></polygon>
        </g>
    </g>
</svg>