<?xml version="1.0" encoding="UTF-8"?>
<svg width="374px" height="377px" viewBox="0 0 374 377" version="1.1" xmlns="http://www.w3.org/2000/svg" xmlns:xlink="http://www.w3.org/1999/xlink">
    <!-- Generator: Sketch 46.2 (44496) - http://www.bohemiancoding.com/sketch -->
    <title>shape-3-copy</title>
    <desc>Created with Sketch.</desc>
    <defs></defs>
    <g id="Page-1" stroke="none" stroke-width="1" fill="none" fill-rule="evenodd">
        <g id="shape-3-copy" fill="#BFE79E">
            <polygon id="Shape" points="374 0 0 1 11 11 1 21 11 33 1 44 13 56 0 67 12 78 1 89 11 99 0 110 12 122 0 131 11 143 1 154 11 166 0 178 11 189 1 200 11 212 0 223 10 234 1 243 11 255 0 266 11 278 0 290 11 301 1 311 11 321 1 332 11 343 1 355 12 365 0 377 373 377"></polygon>
        </g>
    </g>
</svg>