<?xml version="1.0" encoding="UTF-8"?>
<svg width="187px" height="189px" viewBox="0 0 187 189" version="1.1" xmlns="http://www.w3.org/2000/svg" xmlns:xlink="http://www.w3.org/1999/xlink">
    <!-- Generator: Sketch 46.2 (44496) - http://www.bohemiancoding.com/sketch -->
    <title>item-category-bg-blue</title>
    <desc>Created with Sketch.</desc>
    <defs></defs>
    <g id="Page-1" stroke="none" stroke-width="1" fill="none" fill-rule="evenodd">
        <g id="item-category-bg-blue" fill-rule="nonzero" fill="#7DD5C9">
            <polygon id="Shape" points="0 0 187 0.5 181.5 5.5 186.5 10.5 181.5 16.5 186.5 22 180.5 28 187 33.5 181 39 186.5 44.5 181.5 49.5 187 55 181 61 187 65.5 181.5 71.5 186.5 77 181.5 83 187 89 181.5 94.5 186.5 100 181.5 106 187 111.5 182 117 186.5 121.5 181.5 127.5 187 133 181.5 139 187 145 181.5 150.5 186.5 155.5 181.5 160.5 186.5 166 181.5 171.5 186.5 177.5 181 182.5 187 188.5 0.5 188.5"></polygon>
        </g>
    </g>
</svg>