<?xml version="1.0" encoding="UTF-8"?>
<svg width="100px" height="100px" viewBox="0 0 100 100" version="1.1" xmlns="http://www.w3.org/2000/svg" xmlns:xlink="http://www.w3.org/1999/xlink">
    <!-- Generator: Sketch 46.2 (44496) - http://www.bohemiancoding.com/sketch -->
    <title>feature-cart</title>
    <desc>Created with Sketch.</desc>
    <defs></defs>
    <g id="Page-1" stroke="none" stroke-width="1" fill="none" fill-rule="evenodd">
        <g id="feature-cart">
            <path d="M50,0 C77.6138686,0 100,22.3854015 100,50 C100,77.6138686 77.6138686,100 50,100 C22.3861314,100 0,77.6138686 0,50 C0,22.3854015 22.3861314,0 50,0 Z" id="Shape" fill="#8500D2"></path>
            <path d="M66.270073,42.9248175 L66.2729927,42.9262774 L61.140146,54.3759124 C60.8817102,54.9536321 60.3255829,55.3416018 59.6941606,55.3846715 L44.9138686,56.3744526 L45.7678832,58.8233577 L61.8613139,58.8233577 C63.7510949,58.8233577 65.2832117,60.3613139 65.2832117,62.2583942 C65.2832117,64.1554745 63.7510949,65.6934307 61.8613139,65.6934307 C59.9715328,65.6934307 58.440146,64.1554745 58.440146,62.2583942 L42.4722628,62.2583942 C42.4722628,64.1554745 40.9408759,65.6934307 39.0510949,65.6934307 C37.1613139,65.6934307 35.6291971,64.1554745 35.6291971,62.2583942 C35.6291971,60.3613139 37.1613139,58.8233577 39.0510949,58.8233577 L42.1430657,58.8233577 L35.5562044,39.9313869 L31.6379562,39.9313869 C31.1832831,39.9306133 30.7475503,39.7492029 30.426664,39.4270845 C30.1057777,39.1049661 29.9260384,38.6685414 29.9270073,38.2138686 C29.9253931,37.2672059 30.6912943,36.498364 31.6379562,36.4963504 L36.770073,36.4963504 C37.5167883,36.4963504 38.1445255,36.979562 38.3781022,37.6489051 L38.3846715,37.6467153 L39.3810219,40.5036496 L64.7124088,40.5036496 C65.2939843,40.5052023 65.8351258,40.8014543 66.1497897,41.2905546 C66.4644536,41.7796549 66.5097375,42.3949181 66.270073,42.9248175 Z M40.5788321,43.9386861 L43.7408759,53.0094891 L58.4416058,52.0262774 L62.0664234,43.9386861 L40.5788321,43.9386861 L40.5788321,43.9386861 Z" id="Shape" fill="#FFFFFF"></path>
        </g>
    </g>
</svg>