<?xml version="1.0" encoding="UTF-8"?>
<svg width="100px" height="100px" viewBox="0 0 100 100" version="1.1" xmlns="http://www.w3.org/2000/svg" xmlns:xlink="http://www.w3.org/1999/xlink">
    <!-- Generator: Sketch 46.2 (44496) - http://www.bohemiancoding.com/sketch -->
    <title>feature-window</title>
    <desc>Created with Sketch.</desc>
    <defs></defs>
    <g id="Page-1" stroke="none" stroke-width="1" fill="none" fill-rule="evenodd">
        <g id="feature-window">
            <path d="M50,0 C77.6138686,0 100,22.3854015 100,50 C100,77.6138686 77.6138686,100 50,100 C22.3854015,100 0,77.6138686 0,50 C0,22.3854015 22.3854015,0 50,0 Z" id="Shape" fill="#8500D2"></path>
            <path d="M68.1912409,64.9635036 L31.8087591,64.9635036 C31.3102682,64.9640848 30.8319633,64.7666171 30.4790663,64.4145415 C30.1261693,64.0624658 29.9275877,63.5846223 29.9270073,63.0861314 L29.9270073,31.8036496 C29.9275876,31.3052256 30.1261925,30.8274571 30.4791106,30.4754973 C30.8320286,30.1235375 31.3103354,29.9262324 31.8087591,29.9270073 L68.1912409,29.9270073 C68.6896646,29.9262324 69.1679714,30.1235375 69.5208894,30.4754973 C69.8738075,30.8274571 70.0724124,31.3052256 70.0729927,31.8036496 L70.0729927,63.0861314 C70.0724123,63.5846223 69.8738307,64.0624658 69.5209337,64.4145415 C69.1680367,64.7666171 68.6897318,64.9640848 68.1912409,64.9635036 L68.1912409,64.9635036 Z M33.6905109,31.8036496 C33.19202,31.8030685 32.7137151,32.0005362 32.3608181,32.3526118 C32.0079211,32.7046875 31.8093396,33.1825309 31.8087591,33.6810219 C31.8093394,34.1794459 32.0079443,34.6572144 32.3608624,35.0091742 C32.7137804,35.361134 33.1920872,35.5584391 33.6905109,35.5576642 C34.1889347,35.5584391 34.6672415,35.361134 35.0201595,35.0091742 C35.3730776,34.6572144 35.5716825,34.1794459 35.5722628,33.6810219 C35.5716823,33.1825309 35.3731008,32.7046875 35.0202038,32.3526118 C34.6673068,32.0005362 34.1890019,31.8030685 33.6905109,31.8036496 L33.6905109,31.8036496 Z M39.3364964,31.8036496 C38.2983241,31.8024393 37.455626,32.6428502 37.4540146,33.6810219 C37.4547884,34.1795129 37.6535555,34.6572796 38.0065895,35.0092185 C38.3596234,35.3611573 38.8380053,35.5584392 39.3364964,35.5576642 C39.8349201,35.5584391 40.3132269,35.361134 40.6661449,35.0091742 C41.019063,34.6572144 41.2176679,34.1794459 41.2182482,33.6810219 C41.2176677,33.1825309 41.0190862,32.7046875 40.6661892,32.3526118 C40.3132922,32.0005362 39.8349873,31.8030685 39.3364964,31.8036496 L39.3364964,31.8036496 Z M44.9817518,31.8036496 C44.4832609,31.8030685 44.004956,32.0005362 43.652059,32.3526118 C43.299162,32.7046875 43.1005804,33.1825309 43.1,33.6810219 C43.1005803,34.1794459 43.2991852,34.6572144 43.6521033,35.0091742 C44.0050213,35.361134 44.4833281,35.5584391 44.9817518,35.5576642 C45.4801756,35.5584391 45.9584823,35.361134 46.3114004,35.0091742 C46.6643184,34.6572144 46.8629233,34.1794459 46.8635036,33.6810219 C46.8629232,33.1825309 46.6643416,32.7046875 46.3114446,32.3526118 C45.9585476,32.0005362 45.4802428,31.8030685 44.9817518,31.8036496 L44.9817518,31.8036496 Z M68.1912409,37.4350365 L31.8087591,37.4350365 L31.8087591,63.0861314 L68.1912409,63.0861314 L68.1912409,37.4350365 Z" id="Shape" fill="#FFFFFF"></path>
        </g>
    </g>
</svg>