<?xml version="1.0" encoding="UTF-8"?>
<svg width="100px" height="100px" viewBox="0 0 100 100" version="1.1" xmlns="http://www.w3.org/2000/svg" xmlns:xlink="http://www.w3.org/1999/xlink">
    <!-- Generator: Sketch 46.2 (44496) - http://www.bohemiancoding.com/sketch -->
    <title>feature-direction</title>
    <desc>Created with Sketch.</desc>
    <defs></defs>
    <g id="Page-1" stroke="none" stroke-width="1" fill="none" fill-rule="evenodd">
        <g id="feature-direction">
            <path d="M50,0 C77.6145985,0 100,22.3854015 100,50 C100,77.6138686 77.6145985,100 50,100 C22.3854015,100 0,77.6138686 0,50 C0,22.3854015 22.3854015,0 50,0 Z" id="Shape" fill="#8500D2"></path>
            <path d="M66.4233577,38.8270073 L60.6751825,44.3430657 L60.6751825,40.5109489 L53.0109489,40.5109489 L53.0109489,44.3430657 L49.1788321,48.1751825 L49.1788321,40.5109489 C49.1788321,38.3941606 50.8941606,36.6788321 53.0109489,36.6788321 L60.6751825,36.6788321 L60.6751825,32.8467153 L66.4233577,38.8270073 Z M49.1788321,52.0072993 L53.0109489,48.1751825 L53.0109489,55.8394161 C53.0109489,57.9562044 51.2956204,59.6715328 49.1788321,59.6715328 L41.5145985,59.6715328 L41.5145985,63.5036496 L35.7664234,57.5233577 L41.5145985,52.0072993 L41.5145985,55.8394161 L49.1788321,55.8394161 L49.1788321,52.0072993 Z" id="Shape" fill="#FFFFFF"></path>
        </g>
    </g>
</svg>