<?xml version="1.0" encoding="UTF-8"?>
<svg width="177px" height="177px" viewBox="0 0 177 177" version="1.1" xmlns="http://www.w3.org/2000/svg" xmlns:xlink="http://www.w3.org/1999/xlink">
    <!-- Generator: Sketch 46.2 (44496) - http://www.bohemiancoding.com/sketch -->
    <title>icon</title>
    <desc>Created with Sketch.</desc>
    <defs></defs>
    <g id="Page-1" stroke="none" stroke-width="1" fill="none" fill-rule="evenodd">
        <g id="icon" fill="#28C8C6">
            <path d="M151.064,151.065 C133.855,168.274 112.799,177 88.48,177 C64.187,177 43.144,168.274 25.935,151.066 C8.726,133.856 0,112.799 0,88.481 C0,64.188 8.726,43.144 25.935,25.935 C43.144,8.726 64.187,0 88.48,0 C112.8,0 133.856,8.726 151.065,25.935 C168.274,43.144 177,64.188 177,88.481 C177,112.799 168.274,133.856 151.064,151.065 Z M144.418,32.582 L144.417,32.582 C128.82,16.983 110.522,9.401 88.48,9.401 C66.465,9.401 48.181,16.983 32.582,32.582 C16.983,48.181 9.4,66.466 9.4,88.481 C9.4,110.521 16.983,128.819 32.582,144.419 C48.181,160.016 66.466,167.6 88.48,167.6 C110.521,167.6 128.819,160.016 144.418,144.419 C160.017,128.819 167.6,110.521 167.6,88.481 C167.6,66.466 160.017,48.181 144.418,32.582 Z M83.585,30.473 C85.177,28.906 86.757,28.253 88.324,28.514 C89.917,28.227 91.509,28.88 93.102,30.473 L138.889,136.422 L58.086,89.46 L83.585,30.473 Z M37.797,136.422 L57.224,91.575 L86.13,108.378 L37.797,136.422 Z" id="Shape"></path>
        </g>
    </g>
</svg>