<svg xmlns="http://www.w3.org/2000/svg" width="21.317" height="17.348">
    <path fill="#FFF" fill-rule="evenodd" d="M16 1.539a6.555 6.555 0 0 1-1.885.517A3.29 3.29 0 0 0 15.557.24a6.594 6.594 0 0 1-2.085.797A3.283 3.283 0 0 0 7.877 4.03 9.323 9.323 0 0 1 1.11.599 3.273 3.273 0 0 0 .666 2.25c0 1.139.758 2.144 1.639 2.732-.538-.018-1.308-.165-1.308-.411v.041c0 1.59.954 2.917 2.455 3.219a4.002 4.002 0 0 1-.955.115 3.81 3.81 0 0 1-.663-.06 3.26 3.26 0 0 0 3.044 2.281A6.629 6.629 0 0 1 0 11.525 9.292 9.292 0 0 0 5.031 13c6.039 0 9.34-5.001 9.34-9.339 0-.143-.004-.284-.01-.425a6.662 6.662 0 0 0 1.637-1.699l.002.002z"/>
</svg>
