<?xml version="1.0" encoding="UTF-8"?>
<svg width="16px" height="16px" viewBox="0 0 16 16" version="1.1" xmlns="http://www.w3.org/2000/svg" xmlns:xlink="http://www.w3.org/1999/xlink">
    <!-- Generator: Sketch 46.2 (44496) - http://www.bohemiancoding.com/sketch -->
    <title>white-right-arrow</title>
    <desc>Created with Sketch.</desc>
    <defs></defs>
    <g id="Page-1" stroke="none" stroke-width="1" fill="none" fill-rule="evenodd">
        <g id="white-right-arrow" fill="#FFFFFF">
            <path d="M8,16 C3.589,16 0,12.411 0,8 C0,3.589 3.589,0 8,0 C12.411,0 16,3.589 16,8 C16,12.411 12.411,16 8,16 Z M8,2 C4.691,2 2,4.691 2,8 C2,11.309 4.691,14 8,14 C11.309,14 14,11.309 14,8 C14,4.691 11.309,2 8,2 Z M8,9 L5,9 L5,7 L8,7 L8,4 L12,8 L8,12 L8,9 Z" id="Shape"></path>
        </g>
    </g>
</svg>