<svg xmlns="http://www.w3.org/2000/svg">
    <path fill="#FF0" fill-rule="evenodd" d="M49.79 8.807l.004.002-7.032 15.686a2.345 2.345 0 0 1-1.981 1.382l-20.249 1.356 1.17 3.355H43.75c2.589 0 4.688 2.107 4.688 4.706S46.339 40 43.75 40c-2.589 0-4.687-2.107-4.687-4.706H17.187c0 2.599-2.098 4.706-4.687 4.706-2.589 0-4.688-2.107-4.688-4.706s2.099-4.706 4.688-4.706h4.236L7.712 4.706H2.344A2.348 2.348 0 0 1 0 2.353 2.349 2.349 0 0 1 2.344 0h7.031c1.023 0 1.883.662 2.203 1.579l.009-.003 1.365 3.914h34.704a2.349 2.349 0 0 1 2.134 3.317zm-35.197 1.389l4.332 12.427 20.14-1.347 4.966-11.08H14.593z"/>
</svg>
