<svg xmlns="http://www.w3.org/2000/svg" width="1.94cm" height="63.987">
    <path fill="#FFF" fill-rule="evenodd" d="M52.422 48H2.578A2.575 2.575 0 0 1 0 45.428V2.571A2.574 2.574 0 0 1 2.578 0h49.844A2.574 2.574 0 0 1 55 2.571v42.857A2.575 2.575 0 0 1 52.422 48zM5.156 2.571a2.575 2.575 0 0 0-2.578 2.572 2.574 2.574 0 0 0 2.578 2.571 2.574 2.574 0 0 0 2.578-2.571 2.575 2.575 0 0 0-2.578-2.572zm7.735 0a2.576 2.576 0 0 0-2.579 2.572 2.575 2.575 0 0 0 2.579 2.571 2.574 2.574 0 0 0 2.578-2.571 2.575 2.575 0 0 0-2.578-2.572zm7.734 0a2.575 2.575 0 0 0-2.578 2.572 2.574 2.574 0 0 0 2.578 2.571 2.574 2.574 0 0 0 2.578-2.571 2.575 2.575 0 0 0-2.578-2.572zm31.797 7.715H2.578v35.142h49.844V10.286z"/>
</svg>
